<?xml version="1.0" encoding="UTF-8" standalone="no"?><!-- Generator: Gravit.io --><svg xmlns="http://www.w3.org/2000/svg" xmlns:xlink="http://www.w3.org/1999/xlink" style="isolation:isolate" viewBox="0 0 1024 768" width="1024pt" height="768pt"><defs><clipPath id="_clipPath_XqJTrUyNHWlKsWO3KlppbcjERmQcFxSB"><rect width="1024" height="768"/></clipPath></defs><g clip-path="url(#_clipPath_XqJTrUyNHWlKsWO3KlppbcjERmQcFxSB)"><g><g><mask id="_mask_YvBfwahpYMFY0tMbmgBkD7nqqs2rpNVY" x="-200%" y="-200%" width="400%" height="400%"><rect x="-200%" y="-200%" width="400%" height="400%" style="fill:white;"/><path d=" M 502.996 303.023 C 505.729 298.467 512.107 293 516.663 293 L 616.892 349.493 C 618.715 351.315 623.271 363.16 619.626 367.716 L 520.308 426.032 C 517.574 426.943 505.729 426.032 502.084 416.92 L 502.996 303.023 Z " fill-rule="evenodd" fill="black" stroke="none"/></mask><path d=" M 502.996 303.023 C 505.729 298.467 512.107 293 516.663 293 L 616.892 349.493 C 618.715 351.315 623.271 363.16 619.626 367.716 L 520.308 426.032 C 517.574 426.943 505.729 426.032 502.084 416.92 L 502.996 303.023 Z " fill-rule="evenodd" fill="rgb(64,64,64)" mask="url(#_mask_YvBfwahpYMFY0tMbmgBkD7nqqs2rpNVY)" vector-effect="non-scaling-stroke" stroke-width="4.52" stroke="rgb(64,64,64)" stroke-linejoin="round" stroke-linecap="round" stroke-miterlimit="4"/><path d=" M 502.996 303.023 C 505.729 298.467 512.107 293 516.663 293 L 616.892 349.493 C 618.715 351.315 623.271 363.16 619.626 367.716 L 520.308 426.032 C 517.574 426.943 505.729 426.032 502.084 416.92 L 502.996 303.023 Z " fill-rule="evenodd" fill="rgb(64,64,64)"/><g><mask id="_mask_LHWJ6O4RDPHrYSs6tInP5dHkwIqWqrA0" x="-200%" y="-200%" width="400%" height="400%"><rect x="-200%" y="-200%" width="400%" height="400%" style="fill:white;"/><path d=" M 512.863 419.099 C 510.259 423.618 506 423.618 503.396 419.099 L 474.556 369.035 C 471.952 364.516 471.952 357.121 474.556 352.602 L 503.396 302.539 C 505.999 298.02 510.259 298.02 512.863 302.539 L 541.703 352.602 C 544.307 357.121 544.307 364.516 541.703 369.035 L 512.863 419.099 Z " fill="black" stroke="none"/></mask><path d=" M 512.863 419.099 C 510.259 423.618 506 423.618 503.396 419.099 L 474.556 369.035 C 471.952 364.516 471.952 357.121 474.556 352.602 L 503.396 302.539 C 505.999 298.02 510.259 298.02 512.863 302.539 L 541.703 352.602 C 544.307 357.121 544.307 364.516 541.703 369.035 L 512.863 419.099 Z " fill="rgb(255,255,255)" mask="url(#_mask_LHWJ6O4RDPHrYSs6tInP5dHkwIqWqrA0)" vector-effect="non-scaling-stroke" stroke-width="4.275" stroke="rgb(0,0,0)" stroke-linejoin="miter" stroke-linecap="butt" stroke-miterlimit="4"/><path d=" M 512.863 419.099 C 510.259 423.618 506 423.618 503.396 419.099 L 474.556 369.035 C 471.952 364.516 471.952 357.121 474.556 352.602 L 503.396 302.539 C 505.999 298.02 510.259 298.02 512.863 302.539 L 541.703 352.602 C 544.307 357.121 544.307 364.516 541.703 369.035 L 512.863 419.099 Z " fill="rgb(255,255,255)"/><path d=" M 504.151 367.724 C 501.956 363.913 501.956 357.724 504.151 353.913 C 506.347 350.102 509.912 350.102 512.108 353.913 C 514.303 357.724 514.303 363.913 512.108 367.724 C 509.912 371.535 506.347 371.535 504.151 367.724 Z " fill="rgb(64,64,64)" vector-effect="non-scaling-stroke" stroke-width="1.527" stroke="rgb(0,0,0)" stroke-linejoin="miter" stroke-linecap="butt" stroke-miterlimit="4"/></g><g><mask id="_mask_MMv4XHhalwcrHuXwMKpVEZI6AUWJUGjA" x="-200%" y="-200%" width="400%" height="400%"><rect x="-200%" y="-200%" width="400%" height="400%" style="fill:white;"/><path d=" M 614.802 359.653 C 620.017 359.648 622.147 363.337 619.535 367.851 L 590.599 417.859 C 587.987 422.373 581.583 426.071 576.368 426.076 L 518.592 426.131 C 513.376 426.136 511.246 422.447 513.858 417.933 L 542.794 367.924 C 545.406 363.41 551.81 359.713 557.026 359.708 L 614.802 359.653 Z " fill="black" stroke="none"/></mask><path d=" M 614.802 359.653 C 620.017 359.648 622.147 363.337 619.535 367.851 L 590.599 417.859 C 587.987 422.373 581.583 426.071 576.368 426.076 L 518.592 426.131 C 513.376 426.136 511.246 422.447 513.858 417.933 L 542.794 367.924 C 545.406 363.41 551.81 359.713 557.026 359.708 L 614.802 359.653 Z " fill="rgb(255,255,255)" mask="url(#_mask_MMv4XHhalwcrHuXwMKpVEZI6AUWJUGjA)" vector-effect="non-scaling-stroke" stroke-width="4.275" stroke="rgb(0,0,0)" stroke-linejoin="miter" stroke-linecap="butt" stroke-miterlimit="4"/><path d=" M 614.802 359.653 C 620.017 359.648 622.147 363.337 619.535 367.851 L 590.599 417.859 C 587.987 422.373 581.583 426.071 576.368 426.076 L 518.592 426.131 C 513.376 426.136 511.246 422.447 513.858 417.933 L 542.794 367.924 C 545.406 363.41 551.81 359.713 557.026 359.708 L 614.802 359.653 Z " fill="rgb(255,255,255)"/><path d=" M 608.48 373.362 C 606.277 377.169 600.918 380.263 596.52 380.267 C 592.121 380.271 590.339 377.184 592.542 373.377 C 594.744 369.57 600.104 366.476 604.502 366.471 C 608.9 366.467 610.683 369.555 608.48 373.362 Z " fill="rgb(64,64,64)" vector-effect="non-scaling-stroke" stroke-width="1.527" stroke="rgb(0,0,0)" stroke-linejoin="miter" stroke-linecap="butt" stroke-miterlimit="4"/><path d=" M 563.419 373.405 C 561.217 377.212 555.857 380.306 551.459 380.31 C 547.061 380.314 545.278 377.227 547.481 373.42 C 549.684 369.613 555.043 366.519 559.441 366.514 C 563.84 366.51 565.622 369.598 563.419 373.405 Z " fill="rgb(64,64,64)" vector-effect="non-scaling-stroke" stroke-width="1.527" stroke="rgb(0,0,0)" stroke-linejoin="miter" stroke-linecap="butt" stroke-miterlimit="4"/><path d=" M 540.852 412.407 C 538.649 416.214 533.29 419.308 528.891 419.312 C 524.493 419.316 522.711 416.229 524.913 412.422 C 527.116 408.615 532.476 405.521 536.874 405.517 C 541.272 405.513 543.055 408.6 540.852 412.407 Z " fill="rgb(64,64,64)" vector-effect="non-scaling-stroke" stroke-width="1.527" stroke="rgb(0,0,0)" stroke-linejoin="miter" stroke-linecap="butt" stroke-miterlimit="4"/><path d=" M 574.666 392.884 C 572.463 396.691 567.104 399.785 562.706 399.79 C 558.307 399.794 556.525 396.706 558.727 392.899 C 560.93 389.092 566.29 385.998 570.688 385.994 C 575.086 385.99 576.869 389.077 574.666 392.884 Z " fill="rgb(64,64,64)" vector-effect="non-scaling-stroke" stroke-width="1.527" stroke="rgb(0,0,0)" stroke-linejoin="miter" stroke-linecap="butt" stroke-miterlimit="4"/><path d=" M 585.913 412.364 C 583.71 416.171 578.35 419.265 573.952 419.269 C 569.554 419.273 567.771 416.186 569.974 412.379 C 572.177 408.572 577.536 405.478 581.934 405.474 C 586.333 405.469 588.115 408.557 585.913 412.364 Z " fill="rgb(64,64,64)" vector-effect="non-scaling-stroke" stroke-width="1.527" stroke="rgb(0,0,0)" stroke-linejoin="miter" stroke-linecap="butt" stroke-miterlimit="4"/></g><g><mask id="_mask_B345BpPRA46N4TujTvFzM6Dg4yz0tywA" x="-200%" y="-200%" width="400%" height="400%"><rect x="-200%" y="-200%" width="400%" height="400%" style="fill:white;"/><path d=" M 512.329 301.307 C 509.717 296.793 511.847 293.104 517.062 293.109 L 574.839 293.164 C 580.054 293.169 586.458 296.866 589.07 301.38 L 618.006 351.388 C 620.618 355.903 618.488 359.592 613.273 359.587 L 555.496 359.532 C 550.281 359.527 543.877 355.829 541.265 351.315 L 512.329 301.307 Z " fill="black" stroke="none"/></mask><path d=" M 512.329 301.307 C 509.717 296.793 511.847 293.104 517.062 293.109 L 574.839 293.164 C 580.054 293.169 586.458 296.866 589.07 301.38 L 618.006 351.388 C 620.618 355.903 618.488 359.592 613.273 359.587 L 555.496 359.532 C 550.281 359.527 543.877 355.829 541.265 351.315 L 512.329 301.307 Z " fill="rgb(255,255,255)" mask="url(#_mask_B345BpPRA46N4TujTvFzM6Dg4yz0tywA)" vector-effect="non-scaling-stroke" stroke-width="4.275" stroke="rgb(0,0,0)" stroke-linejoin="miter" stroke-linecap="butt" stroke-miterlimit="4"/><path d=" M 512.329 301.307 C 509.717 296.793 511.847 293.104 517.062 293.109 L 574.839 293.164 C 580.054 293.169 586.458 296.866 589.07 301.38 L 618.006 351.388 C 620.618 355.903 618.488 359.592 613.273 359.587 L 555.496 359.532 C 550.281 359.527 543.877 355.829 541.265 351.315 L 512.329 301.307 Z " fill="rgb(255,255,255)"/><path d=" M 527.362 299.927 C 531.761 299.932 537.12 303.026 539.323 306.833 C 541.525 310.64 539.743 313.727 535.345 313.723 C 530.946 313.719 525.587 310.625 523.384 306.818 C 521.181 303.011 522.964 299.923 527.362 299.927 Z " fill="rgb(64,64,64)" vector-effect="non-scaling-stroke" stroke-width="1.527" stroke="rgb(0,0,0)" stroke-linejoin="miter" stroke-linecap="butt" stroke-miterlimit="4"/><path d=" M 549.93 338.93 C 554.328 338.934 559.687 342.028 561.89 345.835 C 564.093 349.642 562.311 352.729 557.912 352.725 C 553.514 352.721 548.155 349.627 545.952 345.82 C 543.749 342.013 545.531 338.925 549.93 338.93 Z " fill="rgb(64,64,64)" vector-effect="non-scaling-stroke" stroke-width="1.527" stroke="rgb(0,0,0)" stroke-linejoin="miter" stroke-linecap="butt" stroke-miterlimit="4"/><path d=" M 594.991 338.973 C 599.389 338.977 604.748 342.071 606.951 345.878 C 609.154 349.685 607.371 352.772 602.973 352.768 C 598.575 352.764 593.215 349.67 591.013 345.863 C 588.81 342.056 590.592 338.968 594.991 338.973 Z " fill="rgb(64,64,64)" vector-effect="non-scaling-stroke" stroke-width="1.527" stroke="rgb(0,0,0)" stroke-linejoin="miter" stroke-linecap="butt" stroke-miterlimit="4"/><path d=" M 572.423 299.97 C 576.821 299.974 582.181 303.069 584.384 306.876 C 586.586 310.683 584.804 313.77 580.405 313.766 C 576.007 313.762 570.648 310.667 568.445 306.86 C 566.242 303.053 568.025 299.966 572.423 299.97 Z " fill="rgb(64,64,64)" vector-effect="non-scaling-stroke" stroke-width="1.527" stroke="rgb(0,0,0)" stroke-linejoin="miter" stroke-linecap="butt" stroke-miterlimit="4"/></g></g><g><g><mask id="_mask_k2t2p2nXe9KxQmmN134uShgpKMAVcvUC" x="-200%" y="-200%" width="400%" height="400%"><rect x="-200%" y="-200%" width="400%" height="400%" style="fill:white;"/><path d=" M 546.287 422.539 C 550.843 425.273 556.31 431.651 556.31 436.207 L 497.693 537.778 C 495.267 539.278 490.011 542.3 482.542 539.708 L 423.278 439.851 C 422.367 437.118 423.278 425.273 432.39 421.628 L 546.287 422.539 Z " fill-rule="evenodd" fill="black" stroke="none"/></mask><path d=" M 546.287 422.539 C 550.843 425.273 556.31 431.651 556.31 436.207 L 497.693 537.778 C 495.267 539.278 490.011 542.3 482.542 539.708 L 423.278 439.851 C 422.367 437.118 423.278 425.273 432.39 421.628 L 546.287 422.539 Z " fill-rule="evenodd" fill="rgb(64,64,64)" mask="url(#_mask_k2t2p2nXe9KxQmmN134uShgpKMAVcvUC)" vector-effect="non-scaling-stroke" stroke-width="4.52" stroke="rgb(64,64,64)" stroke-linejoin="round" stroke-linecap="round" stroke-miterlimit="4"/><path d=" M 546.287 422.539 C 550.843 425.273 556.31 431.651 556.31 436.207 L 497.693 537.778 C 495.267 539.278 490.011 542.3 482.542 539.708 L 423.278 439.851 C 422.367 437.118 423.278 425.273 432.39 421.628 L 546.287 422.539 Z " fill-rule="evenodd" fill="rgb(64,64,64)"/><g><mask id="_mask_bDEh66I7BecxeaXdUcbKMmK754kXSa7R" x="-200%" y="-200%" width="400%" height="400%"><rect x="-200%" y="-200%" width="400%" height="400%" style="fill:white;"/><path d=" M 430.211 432.406 C 425.692 429.803 425.692 425.543 430.211 422.939 L 480.275 394.099 C 484.794 391.496 492.188 391.496 496.708 394.099 L 546.771 422.939 C 551.29 425.543 551.29 429.803 546.771 432.406 L 496.708 461.247 C 492.188 463.85 484.794 463.85 480.275 461.247 L 430.211 432.406 Z " fill="black" stroke="none"/></mask><path d=" M 430.211 432.406 C 425.692 429.803 425.692 425.543 430.211 422.939 L 480.275 394.099 C 484.794 391.496 492.188 391.496 496.708 394.099 L 546.771 422.939 C 551.29 425.543 551.29 429.803 546.771 432.406 L 496.708 461.247 C 492.188 463.85 484.794 463.85 480.275 461.247 L 430.211 432.406 Z " fill="rgb(255,255,255)" mask="url(#_mask_bDEh66I7BecxeaXdUcbKMmK754kXSa7R)" vector-effect="non-scaling-stroke" stroke-width="4.275" stroke="rgb(0,0,0)" stroke-linejoin="miter" stroke-linecap="butt" stroke-miterlimit="4"/><path d=" M 430.211 432.406 C 425.692 429.803 425.692 425.543 430.211 422.939 L 480.275 394.099 C 484.794 391.496 492.188 391.496 496.708 394.099 L 546.771 422.939 C 551.29 425.543 551.29 429.803 546.771 432.406 L 496.708 461.247 C 492.188 463.85 484.794 463.85 480.275 461.247 L 430.211 432.406 Z " fill="rgb(255,255,255)"/><path d=" M 481.586 423.695 C 485.397 421.499 491.585 421.499 495.397 423.695 C 499.208 425.89 499.208 429.455 495.397 431.651 C 491.585 433.846 485.397 433.846 481.586 431.651 C 477.775 429.455 477.775 425.89 481.586 423.695 Z " fill="rgb(64,64,64)" vector-effect="non-scaling-stroke" stroke-width="1.527" stroke="rgb(0,0,0)" stroke-linejoin="miter" stroke-linecap="butt" stroke-miterlimit="4"/></g><g><mask id="_mask_qJdnV8cPf3MQnlIGSfwbJwJJgGNuUo6j" x="-200%" y="-200%" width="400%" height="400%"><rect x="-200%" y="-200%" width="400%" height="400%" style="fill:white;"/><path d=" M 489.657 534.345 C 489.662 539.561 485.973 541.691 481.459 539.079 L 431.45 510.143 C 426.936 507.531 423.239 501.127 423.234 495.911 L 423.179 438.135 C 423.174 432.92 426.863 430.79 431.377 433.402 L 481.385 462.337 C 485.9 464.95 489.597 471.354 489.602 476.569 L 489.657 534.345 Z " fill="black" stroke="none"/></mask><path d=" M 489.657 534.345 C 489.662 539.561 485.973 541.691 481.459 539.079 L 431.45 510.143 C 426.936 507.531 423.239 501.127 423.234 495.911 L 423.179 438.135 C 423.174 432.92 426.863 430.79 431.377 433.402 L 481.385 462.337 C 485.9 464.95 489.597 471.354 489.602 476.569 L 489.657 534.345 Z " fill="rgb(255,255,255)" mask="url(#_mask_qJdnV8cPf3MQnlIGSfwbJwJJgGNuUo6j)" vector-effect="non-scaling-stroke" stroke-width="4.275" stroke="rgb(0,0,0)" stroke-linejoin="miter" stroke-linecap="butt" stroke-miterlimit="4"/><path d=" M 489.657 534.345 C 489.662 539.561 485.973 541.691 481.459 539.079 L 431.45 510.143 C 426.936 507.531 423.239 501.127 423.234 495.911 L 423.179 438.135 C 423.174 432.92 426.863 430.79 431.377 433.402 L 481.385 462.337 C 485.9 464.95 489.597 471.354 489.602 476.569 L 489.657 534.345 Z " fill="rgb(255,255,255)"/><path d=" M 475.948 528.024 C 472.141 525.821 469.047 520.461 469.043 516.063 C 469.039 511.665 472.126 509.882 475.933 512.085 C 479.74 514.288 482.834 519.647 482.838 524.045 C 482.843 528.444 479.755 530.226 475.948 528.024 Z " fill="rgb(64,64,64)" vector-effect="non-scaling-stroke" stroke-width="1.527" stroke="rgb(0,0,0)" stroke-linejoin="miter" stroke-linecap="butt" stroke-miterlimit="4"/><path d=" M 436.903 460.395 C 433.096 458.192 430.002 452.833 429.998 448.435 C 429.993 444.037 433.081 442.254 436.888 444.457 C 440.695 446.66 443.789 452.019 443.793 456.417 C 443.797 460.816 440.71 462.598 436.903 460.395 Z " fill="rgb(64,64,64)" vector-effect="non-scaling-stroke" stroke-width="1.527" stroke="rgb(0,0,0)" stroke-linejoin="miter" stroke-linecap="butt" stroke-miterlimit="4"/></g><g><mask id="_mask_go9UQyvxqm6ai8G1Jpwpp116SHXI1uEJ" x="-200%" y="-200%" width="400%" height="400%"><rect x="-200%" y="-200%" width="400%" height="400%" style="fill:white;"/><path d=" M 548.003 431.872 C 552.517 429.26 556.206 431.39 556.201 436.606 L 556.146 494.382 C 556.141 499.597 552.444 506.002 547.93 508.614 L 497.921 537.55 C 493.407 540.162 489.718 538.031 489.723 532.816 L 489.778 475.04 C 489.783 469.824 493.481 463.42 497.995 460.808 L 548.003 431.872 Z " fill="black" stroke="none"/></mask><path d=" M 548.003 431.872 C 552.517 429.26 556.206 431.39 556.201 436.606 L 556.146 494.382 C 556.141 499.597 552.444 506.002 547.93 508.614 L 497.921 537.55 C 493.407 540.162 489.718 538.031 489.723 532.816 L 489.778 475.04 C 489.783 469.824 493.481 463.42 497.995 460.808 L 548.003 431.872 Z " fill="rgb(255,255,255)" mask="url(#_mask_go9UQyvxqm6ai8G1Jpwpp116SHXI1uEJ)" vector-effect="non-scaling-stroke" stroke-width="4.275" stroke="rgb(0,0,0)" stroke-linejoin="miter" stroke-linecap="butt" stroke-miterlimit="4"/><path d=" M 548.003 431.872 C 552.517 429.26 556.206 431.39 556.201 436.606 L 556.146 494.382 C 556.141 499.597 552.444 506.002 547.93 508.614 L 497.921 537.55 C 493.407 540.162 489.718 538.031 489.723 532.816 L 489.778 475.04 C 489.783 469.824 493.481 463.42 497.995 460.808 L 548.003 431.872 Z " fill="rgb(255,255,255)"/><path d=" M 549.382 446.906 C 549.378 451.304 546.284 456.663 542.477 458.866 C 538.67 461.069 535.583 459.286 535.587 454.888 C 535.591 450.49 538.685 445.13 542.492 442.928 C 546.299 440.725 549.387 442.507 549.382 446.906 Z " fill="rgb(64,64,64)" vector-effect="non-scaling-stroke" stroke-width="1.527" stroke="rgb(0,0,0)" stroke-linejoin="miter" stroke-linecap="butt" stroke-miterlimit="4"/><path d=" M 510.337 514.534 C 510.333 518.932 507.239 524.292 503.432 526.494 C 499.625 528.697 496.538 526.915 496.542 522.516 C 496.546 518.118 499.64 512.759 503.447 510.556 C 507.254 508.353 510.341 510.136 510.337 514.534 Z " fill="rgb(64,64,64)" vector-effect="non-scaling-stroke" stroke-width="1.527" stroke="rgb(0,0,0)" stroke-linejoin="miter" stroke-linecap="butt" stroke-miterlimit="4"/><path d=" M 529.86 480.72 C 529.856 485.118 526.761 490.477 522.954 492.68 C 519.148 494.883 516.06 493.101 516.064 488.702 C 516.069 484.304 519.163 478.945 522.97 476.742 C 526.777 474.539 529.864 476.321 529.86 480.72 Z " fill="rgb(64,64,64)" vector-effect="non-scaling-stroke" stroke-width="1.527" stroke="rgb(0,0,0)" stroke-linejoin="miter" stroke-linecap="butt" stroke-miterlimit="4"/></g></g></g></g></g></svg>